<?xml version="1.0" encoding="UTF-8" standalone="no"?>
<!-- Generator: Adobe Illustrator 19.0.0, SVG Export Plug-In . SVG Version: 6.00 Build 0)  -->

<svg
   xmlns:dc="http://purl.org/dc/elements/1.1/"
   xmlns:cc="http://creativecommons.org/ns#"
   xmlns:rdf="http://www.w3.org/1999/02/22-rdf-syntax-ns#"
   xmlns:svg="http://www.w3.org/2000/svg"
   xmlns="http://www.w3.org/2000/svg"
   xmlns:sodipodi="http://sodipodi.sourceforge.net/DTD/sodipodi-0.dtd"
   xmlns:inkscape="http://www.inkscape.org/namespaces/inkscape"
   version="1.1"
   id="Capa_1"
   x="0px"
   y="0px"
   viewBox="0 0 50 50"
   style="enable-background:new 0 0 50 50;"
   xml:space="preserve"
   sodipodi:docname="info.svg"
   inkscape:version="0.92.4 5da689c313, 2019-01-14"><metadata
   id="metadata43"><rdf:RDF><cc:Work
       rdf:about=""><dc:format>image/svg+xml</dc:format><dc:type
         rdf:resource="http://purl.org/dc/dcmitype/StillImage" /><dc:title></dc:title></cc:Work></rdf:RDF></metadata><defs
   id="defs41"><filter
     inkscape:collect="always"
     style="color-interpolation-filters:sRGB"
     id="filter863"
     x="-0.2496"
     width="1.4992"
     y="-0.2496"
     height="1.4992"><feGaussianBlur
       inkscape:collect="always"
       stdDeviation="5.2"
       id="feGaussianBlur865" /></filter></defs><sodipodi:namedview
   pagecolor="#ffffff"
   bordercolor="#666666"
   borderopacity="1"
   objecttolerance="10"
   gridtolerance="10"
   guidetolerance="10"
   inkscape:pageopacity="0"
   inkscape:pageshadow="2"
   inkscape:window-width="1301"
   inkscape:window-height="871"
   id="namedview39"
   showgrid="false"
   inkscape:pagecheckerboard="true"
   inkscape:zoom="4.72"
   inkscape:cx="35.169492"
   inkscape:cy="25"
   inkscape:window-x="465"
   inkscape:window-y="113"
   inkscape:window-maximized="0"
   inkscape:current-layer="Capa_1" />


<g
   id="g853"
   style="display:none;filter:url(#filter863)"
   transform="matrix(0.67779426,0,0,0.67779426,8.0551436,8.0551436)"><circle
     id="circle2"
     r="25"
     cy="25"
     cx="25"
     style="fill:#48a0dc" /><line
     id="line4"
     y2="39"
     x2="25"
     y1="37"
     x1="25"
     style="fill:none;stroke:#ffffff;stroke-width:2;stroke-linecap:round;stroke-miterlimit:10" /><path
     id="path6"
     d="m 18,16 c 0,-3.899 3.188,-7.054 7.1,-6.999 3.717,0.052 6.848,3.182 6.9,6.9 0.035,2.511 -1.252,4.723 -3.21,5.986 C 26.355,23.457 25,26.261 25,29.158 V 32"
     style="fill:none;stroke:#ffffff;stroke-width:2;stroke-linecap:round;stroke-miterlimit:10"
     inkscape:connector-curvature="0" /></g><g
   transform="matrix(0.67779426,0,0,0.67779426,8.0551436,8.0551436)"
   style="display:none;filter:url(#filter863)"
   id="g873"><circle
     style="fill:#48a0dc"
     cx="25"
     cy="25"
     r="25"
     id="circle867" /><line
     style="fill:none;stroke:#ffffff;stroke-width:2;stroke-linecap:round;stroke-miterlimit:10"
     x1="25"
     y1="37"
     x2="25"
     y2="39"
     id="line869" /><path
     inkscape:connector-curvature="0"
     style="fill:none;stroke:#ffffff;stroke-width:2;stroke-linecap:round;stroke-miterlimit:10"
     d="m 18,16 c 0,-3.899 3.188,-7.054 7.1,-6.999 3.717,0.052 6.848,3.182 6.9,6.9 0.035,2.511 -1.252,4.723 -3.21,5.986 C 26.355,23.457 25,26.261 25,29.158 V 32"
     id="path871" /></g><g
   id="g861"
   transform="matrix(0.67779426,0,0,0.67779426,8.0551436,8.0551436)"><circle
     style="fill:#48a0dc"
     cx="25"
     cy="25"
     r="25"
     id="circle855" /><line
     style="fill:none;stroke:#ffffff;stroke-width:2;stroke-linecap:round;stroke-miterlimit:10"
     x1="25"
     y1="37"
     x2="25"
     y2="39"
     id="line857" /><path
     inkscape:connector-curvature="0"
     style="fill:none;stroke:#ffffff;stroke-width:2;stroke-linecap:round;stroke-miterlimit:10"
     d="m 18,16 c 0,-3.899 3.188,-7.054 7.1,-6.999 3.717,0.052 6.848,3.182 6.9,6.9 0.035,2.511 -1.252,4.723 -3.21,5.986 C 26.355,23.457 25,26.261 25,29.158 V 32"
     id="path859" /></g>
<g
   id="g8">
</g>
<g
   id="g10">
</g>
<g
   id="g12">
</g>
<g
   id="g14">
</g>
<g
   id="g16">
</g>
<g
   id="g18">
</g>
<g
   id="g20">
</g>
<g
   id="g22">
</g>
<g
   id="g24">
</g>
<g
   id="g26">
</g>
<g
   id="g28">
</g>
<g
   id="g30">
</g>
<g
   id="g32">
</g>
<g
   id="g34">
</g>
<g
   id="g36">
</g>
</svg>